<?xml version="1.0" encoding="UTF-8" standalone="no"?>
<!DOCTYPE svg PUBLIC "-//W3C//DTD SVG 1.1//EN"
 "http://www.w3.org/Graphics/SVG/1.1/DTD/svg11.dtd">
<!-- Generated by graphviz version 14.1.1 (20251213.1925)
 -->
<!-- Title: interface/driver_htu21d_interface.h Pages: 1 -->
<svg width="480pt" height="176pt"
 viewBox="0.00 0.00 480.00 176.00" xmlns="http://www.w3.org/2000/svg" xmlns:xlink="http://www.w3.org/1999/xlink">
<g id="graph0" class="graph" transform="scale(1 1) rotate(0) translate(4 172)">
<title>interface/driver_htu21d_interface.h</title>
<!-- Node1 -->
<g id="Node000001" class="node">
<title>Node1</title>
<g id="a_Node000001"><a xlink:title="driver htu21d interface header file">
<polygon fill="#999999" stroke="#666666" points="308.62,-168 193.62,-168 193.62,-136 308.62,-136 308.62,-168"/>
<text xml:space="preserve" text-anchor="start" x="201.62" y="-154.5" font-family="Helvetica,sans-Serif" font-size="10.00">interface/driver_htu21d</text>
<text xml:space="preserve" text-anchor="middle" x="251.12" y="-142.5" font-family="Helvetica,sans-Serif" font-size="10.00">_interface.h</text>
</a>
</g>
</g>
<!-- Node2 -->
<g id="Node000002" class="node">
<title>Node2</title>
<g id="a_Node000002"><a xlink:href="driver__htu21d__basic_8h.html" target="_top" xlink:title="driver htu21d basic header file">
<polygon fill="white" stroke="#666666" points="114.25,-100 0,-100 0,-68 114.25,-68 114.25,-100"/>
<text xml:space="preserve" text-anchor="start" x="8" y="-86.5" font-family="Helvetica,sans-Serif" font-size="10.00">example/driver_htu21d</text>
<text xml:space="preserve" text-anchor="middle" x="57.12" y="-74.5" font-family="Helvetica,sans-Serif" font-size="10.00">_basic.h</text>
</a>
</g>
</g>
<!-- Node1&#45;&gt;Node2 -->
<g id="edge1_Node000001_Node000002" class="edge">
<title>Node1&#45;&gt;Node2</title>
<g id="a_edge1_Node000001_Node000002"><a xlink:title=" ">
<path fill="none" stroke="#63b8ff" d="M194.75,-131.82C165.47,-121.86 130.18,-109.85 102.66,-100.49"/>
<polygon fill="#63b8ff" stroke="#63b8ff" points="193.61,-135.13 204.21,-135.04 195.87,-128.5 193.61,-135.13"/>
</a>
</g>
</g>
<!-- Node4 -->
<g id="Node000004" class="node">
<title>Node4</title>
<g id="a_Node000004"><a xlink:href="driver__htu21d__interface__template_8c.html" target="_top" xlink:title="driver htu21d interface template source file">
<polygon fill="white" stroke="#666666" points="247.62,-100 132.62,-100 132.62,-68 247.62,-68 247.62,-100"/>
<text xml:space="preserve" text-anchor="start" x="140.62" y="-86.5" font-family="Helvetica,sans-Serif" font-size="10.00">interface/driver_htu21d</text>
<text xml:space="preserve" text-anchor="middle" x="190.12" y="-74.5" font-family="Helvetica,sans-Serif" font-size="10.00">_interface_template.c</text>
</a>
</g>
</g>
<!-- Node1&#45;&gt;Node4 -->
<g id="edge3_Node000001_Node000004" class="edge">
<title>Node1&#45;&gt;Node4</title>
<g id="a_edge3_Node000001_Node000004"><a xlink:title=" ">
<path fill="none" stroke="#63b8ff" d="M229.34,-127.43C220.97,-118.38 211.65,-108.29 204.2,-100.22"/>
<polygon fill="#63b8ff" stroke="#63b8ff" points="226.59,-129.61 235.95,-134.58 231.73,-124.86 226.59,-129.61"/>
</a>
</g>
</g>
<!-- Node5 -->
<g id="Node000005" class="node">
<title>Node5</title>
<g id="a_Node000005"><a xlink:href="driver__htu21d__read__test_8h.html" target="_top" xlink:title="driver htu21d read test header file">
<polygon fill="white" stroke="#666666" points="360.12,-100 266.12,-100 266.12,-68 360.12,-68 360.12,-100"/>
<text xml:space="preserve" text-anchor="start" x="274.12" y="-86.5" font-family="Helvetica,sans-Serif" font-size="10.00">test/driver_htu21d</text>
<text xml:space="preserve" text-anchor="middle" x="313.12" y="-74.5" font-family="Helvetica,sans-Serif" font-size="10.00">_read_test.h</text>
</a>
</g>
</g>
<!-- Node1&#45;&gt;Node5 -->
<g id="edge4_Node000001_Node000005" class="edge">
<title>Node1&#45;&gt;Node5</title>
<g id="a_edge4_Node000001_Node000005"><a xlink:title=" ">
<path fill="none" stroke="#63b8ff" d="M273.27,-127.43C281.77,-118.38 291.25,-108.29 298.82,-100.22"/>
<polygon fill="#63b8ff" stroke="#63b8ff" points="270.84,-124.9 266.54,-134.59 275.94,-129.7 270.84,-124.9"/>
</a>
</g>
</g>
<!-- Node7 -->
<g id="Node000007" class="node">
<title>Node7</title>
<g id="a_Node000007"><a xlink:href="driver__htu21d__register__test_8h.html" target="_top" xlink:title="driver htu21d register test header file">
<polygon fill="white" stroke="#666666" points="472.12,-100 378.12,-100 378.12,-68 472.12,-68 472.12,-100"/>
<text xml:space="preserve" text-anchor="start" x="386.12" y="-86.5" font-family="Helvetica,sans-Serif" font-size="10.00">test/driver_htu21d</text>
<text xml:space="preserve" text-anchor="middle" x="425.12" y="-74.5" font-family="Helvetica,sans-Serif" font-size="10.00">_register_test.h</text>
</a>
</g>
</g>
<!-- Node1&#45;&gt;Node7 -->
<g id="edge6_Node000001_Node000007" class="edge">
<title>Node1&#45;&gt;Node7</title>
<g id="a_edge6_Node000001_Node000007"><a xlink:title=" ">
<path fill="none" stroke="#63b8ff" d="M302.39,-131.56C328.5,-121.65 359.82,-109.77 384.28,-100.49"/>
<polygon fill="#63b8ff" stroke="#63b8ff" points="301.44,-128.17 293.34,-134.99 303.93,-134.72 301.44,-128.17"/>
</a>
</g>
</g>
<!-- Node3 -->
<g id="Node000003" class="node">
<title>Node3</title>
<g id="a_Node000003"><a xlink:href="driver__htu21d__basic_8c.html" target="_top" xlink:title="driver htu21d basic source file">
<polygon fill="white" stroke="#666666" points="114.25,-32 0,-32 0,0 114.25,0 114.25,-32"/>
<text xml:space="preserve" text-anchor="start" x="8" y="-18.5" font-family="Helvetica,sans-Serif" font-size="10.00">example/driver_htu21d</text>
<text xml:space="preserve" text-anchor="middle" x="57.12" y="-6.5" font-family="Helvetica,sans-Serif" font-size="10.00">_basic.c</text>
</a>
</g>
</g>
<!-- Node2&#45;&gt;Node3 -->
<g id="edge2_Node000002_Node000003" class="edge">
<title>Node2&#45;&gt;Node3</title>
<g id="a_edge2_Node000002_Node000003"><a xlink:title=" ">
<path fill="none" stroke="#63b8ff" d="M57.12,-56.31C57.12,-48.12 57.12,-39.38 57.12,-32.22"/>
<polygon fill="#63b8ff" stroke="#63b8ff" points="53.63,-56.18 57.13,-66.18 60.63,-56.18 53.63,-56.18"/>
</a>
</g>
</g>
<!-- Node6 -->
<g id="Node000006" class="node">
<title>Node6</title>
<g id="a_Node000006"><a xlink:href="driver__htu21d__read__test_8c.html" target="_top" xlink:title="driver htu21d read test source file">
<polygon fill="white" stroke="#666666" points="360.12,-32 266.12,-32 266.12,0 360.12,0 360.12,-32"/>
<text xml:space="preserve" text-anchor="start" x="274.12" y="-18.5" font-family="Helvetica,sans-Serif" font-size="10.00">test/driver_htu21d</text>
<text xml:space="preserve" text-anchor="middle" x="313.12" y="-6.5" font-family="Helvetica,sans-Serif" font-size="10.00">_read_test.c</text>
</a>
</g>
</g>
<!-- Node5&#45;&gt;Node6 -->
<g id="edge5_Node000005_Node000006" class="edge">
<title>Node5&#45;&gt;Node6</title>
<g id="a_edge5_Node000005_Node000006"><a xlink:title=" ">
<path fill="none" stroke="#63b8ff" d="M313.12,-56.31C313.12,-48.12 313.12,-39.38 313.12,-32.22"/>
<polygon fill="#63b8ff" stroke="#63b8ff" points="309.63,-56.18 313.13,-66.18 316.63,-56.18 309.63,-56.18"/>
</a>
</g>
</g>
<!-- Node8 -->
<g id="Node000008" class="node">
<title>Node8</title>
<g id="a_Node000008"><a xlink:href="driver__htu21d__register__test_8c.html" target="_top" xlink:title="driver htu21d register test source file">
<polygon fill="white" stroke="#666666" points="472.12,-32 378.12,-32 378.12,0 472.12,0 472.12,-32"/>
<text xml:space="preserve" text-anchor="start" x="386.12" y="-18.5" font-family="Helvetica,sans-Serif" font-size="10.00">test/driver_htu21d</text>
<text xml:space="preserve" text-anchor="middle" x="425.12" y="-6.5" font-family="Helvetica,sans-Serif" font-size="10.00">_register_test.c</text>
</a>
</g>
</g>
<!-- Node7&#45;&gt;Node8 -->
<g id="edge7_Node000007_Node000008" class="edge">
<title>Node7&#45;&gt;Node8</title>
<g id="a_edge7_Node000007_Node000008"><a xlink:title=" ">
<path fill="none" stroke="#63b8ff" d="M425.12,-56.31C425.12,-48.12 425.12,-39.38 425.12,-32.22"/>
<polygon fill="#63b8ff" stroke="#63b8ff" points="421.63,-56.18 425.13,-66.18 428.63,-56.18 421.63,-56.18"/>
</a>
</g>
</g>
</g>
</svg>
