<?xml version="1.0" encoding="UTF-8" standalone="no"?>
<!DOCTYPE svg PUBLIC "-//W3C//DTD SVG 1.1//EN"
 "http://www.w3.org/Graphics/SVG/1.1/DTD/svg11.dtd">
<!-- Generated by graphviz version 14.1.1 (20251213.1925)
 -->
<!-- Title: htu21d driver function Pages: 1 -->
<svg width="267pt" height="290pt"
 viewBox="0.00 0.00 267.00 290.00" xmlns="http://www.w3.org/2000/svg" xmlns:xlink="http://www.w3.org/1999/xlink">
<g id="graph0" class="graph" transform="scale(1 1) rotate(0) translate(4 286)">
<title>htu21d driver function</title>
<!-- Node3 -->
<g id="Node000003" class="node">
<title>Node3</title>
<g id="a_Node000003"><a xlink:href="group__htu21d__base__driver.html" target="_top" xlink:title="htu21d base driver modules">
<polygon fill="white" stroke="#666666" points="250.25,-282 154,-282 154,-250 250.25,-250 250.25,-282"/>
<text xml:space="preserve" text-anchor="start" x="162" y="-268.5" font-family="Helvetica,sans-Serif" font-size="10.00">htu21d base driver</text>
<text xml:space="preserve" text-anchor="middle" x="202.12" y="-256.5" font-family="Helvetica,sans-Serif" font-size="10.00"> function</text>
</a>
</g>
</g>
<!-- Node1 -->
<g id="Node000001" class="node">
<title>Node1</title>
<g id="a_Node000001"><a xlink:title="htu21d driver modules">
<polygon fill="#999999" stroke="#666666" points="109.75,-151 0,-151 0,-131 109.75,-131 109.75,-151"/>
<text xml:space="preserve" text-anchor="middle" x="54.88" y="-137.5" font-family="Helvetica,sans-Serif" font-size="10.00">htu21d driver function</text>
</a>
</g>
</g>
<!-- Node1&#45;&gt;Node3 -->
<g id="edge2" class="edge">
<title>Node1&#45;&gt;Node3</title>
<path fill="none" stroke="black" d="M69.61,-160.67C85.76,-182.61 114.36,-218.04 145.75,-241 150.01,-244.11 154.71,-246.96 159.53,-249.54"/>
<polygon fill="black" stroke="black" points="72.48,-158.66 63.8,-152.59 66.8,-162.75 72.48,-158.66"/>
</g>
<!-- Node6 -->
<g id="Node000006" class="node">
<title>Node6</title>
<g id="a_Node000006"><a xlink:href="group__htu21d__example__driver.html" target="_top" xlink:title="htu21d example driver modules">
<polygon fill="white" stroke="#666666" points="258.12,-232 146.12,-232 146.12,-200 258.12,-200 258.12,-232"/>
<text xml:space="preserve" text-anchor="start" x="154.12" y="-218.5" font-family="Helvetica,sans-Serif" font-size="10.00">htu21d example driver</text>
<text xml:space="preserve" text-anchor="middle" x="202.12" y="-206.5" font-family="Helvetica,sans-Serif" font-size="10.00"> function</text>
</a>
</g>
</g>
<!-- Node1&#45;&gt;Node6 -->
<g id="edge5" class="edge">
<title>Node1&#45;&gt;Node6</title>
<path fill="none" stroke="black" d="M83.19,-156.98C100.84,-167.11 124.41,-180.27 145.75,-191 151.5,-193.89 157.65,-196.82 163.69,-199.61"/>
<polygon fill="black" stroke="black" points="85.26,-154.13 74.85,-152.16 81.76,-160.2 85.26,-154.13"/>
</g>
<!-- Node4 -->
<g id="Node000004" class="node">
<title>Node4</title>
<g id="a_Node000004"><a xlink:href="group__htu21d__extend__driver.html" target="_top" xlink:title="htu21d extend driver modules">
<polygon fill="white" stroke="#666666" points="254.38,-182 149.88,-182 149.88,-150 254.38,-150 254.38,-182"/>
<text xml:space="preserve" text-anchor="start" x="157.88" y="-168.5" font-family="Helvetica,sans-Serif" font-size="10.00">htu21d extend driver</text>
<text xml:space="preserve" text-anchor="middle" x="202.12" y="-156.5" font-family="Helvetica,sans-Serif" font-size="10.00"> function</text>
</a>
</g>
</g>
<!-- Node1&#45;&gt;Node4 -->
<g id="edge3" class="edge">
<title>Node1&#45;&gt;Node4</title>
<path fill="none" stroke="black" d="M121.01,-152.21C130.52,-153.85 140.21,-155.51 149.4,-157.1"/>
<polygon fill="black" stroke="black" points="121.9,-148.81 111.45,-150.57 120.71,-155.71 121.9,-148.81"/>
</g>
<!-- Node5 -->
<g id="Node000005" class="node">
<title>Node5</title>
<g id="a_Node000005"><a xlink:href="group__htu21d__interface__driver.html" target="_top" xlink:title="htu21d interface driver modules">
<polygon fill="white" stroke="#666666" points="258.5,-132 145.75,-132 145.75,-100 258.5,-100 258.5,-132"/>
<text xml:space="preserve" text-anchor="start" x="153.75" y="-118.5" font-family="Helvetica,sans-Serif" font-size="10.00">htu21d interface driver</text>
<text xml:space="preserve" text-anchor="middle" x="202.12" y="-106.5" font-family="Helvetica,sans-Serif" font-size="10.00"> function</text>
</a>
</g>
</g>
<!-- Node1&#45;&gt;Node5 -->
<g id="edge4" class="edge">
<title>Node1&#45;&gt;Node5</title>
<path fill="none" stroke="black" d="M121.29,-129.74C129.39,-128.35 137.61,-126.93 145.54,-125.57"/>
<polygon fill="black" stroke="black" points="120.71,-126.29 111.45,-131.43 121.9,-133.19 120.71,-126.29"/>
</g>
<!-- Node2 -->
<g id="Node000002" class="node">
<title>Node2</title>
<g id="a_Node000002"><a xlink:href="group__htu21d__link__driver.html" target="_top" xlink:title="htu21d link driver modules">
<polygon fill="white" stroke="#666666" points="247.25,-82 157,-82 157,-50 247.25,-50 247.25,-82"/>
<text xml:space="preserve" text-anchor="start" x="165" y="-68.5" font-family="Helvetica,sans-Serif" font-size="10.00">htu21d link driver</text>
<text xml:space="preserve" text-anchor="middle" x="202.12" y="-56.5" font-family="Helvetica,sans-Serif" font-size="10.00"> function</text>
</a>
</g>
</g>
<!-- Node1&#45;&gt;Node2 -->
<g id="edge1" class="edge">
<title>Node1&#45;&gt;Node2</title>
<path fill="none" stroke="black" d="M83.19,-125.02C100.84,-114.89 124.41,-101.73 145.75,-91 151.5,-88.11 157.65,-85.18 163.69,-82.39"/>
<polygon fill="black" stroke="black" points="81.76,-121.8 74.85,-129.84 85.26,-127.87 81.76,-121.8"/>
</g>
<!-- Node7 -->
<g id="Node000007" class="node">
<title>Node7</title>
<g id="a_Node000007"><a xlink:href="group__htu21d__test__driver.html" target="_top" xlink:title="htu21d test driver modules">
<polygon fill="white" stroke="#666666" points="248,-32 156.25,-32 156.25,0 248,0 248,-32"/>
<text xml:space="preserve" text-anchor="start" x="164.25" y="-18.5" font-family="Helvetica,sans-Serif" font-size="10.00">htu21d test driver</text>
<text xml:space="preserve" text-anchor="middle" x="202.12" y="-6.5" font-family="Helvetica,sans-Serif" font-size="10.00"> function</text>
</a>
</g>
</g>
<!-- Node1&#45;&gt;Node7 -->
<g id="edge6" class="edge">
<title>Node1&#45;&gt;Node7</title>
<path fill="none" stroke="black" d="M69.61,-121.33C85.76,-99.39 114.36,-63.96 145.75,-41 150.01,-37.89 154.71,-35.04 159.53,-32.46"/>
<polygon fill="black" stroke="black" points="66.8,-119.25 63.8,-129.41 72.48,-123.34 66.8,-119.25"/>
</g>
</g>
</svg>
