<?xml version="1.0" encoding="UTF-8" standalone="no"?>
<!DOCTYPE svg PUBLIC "-//W3C//DTD SVG 1.1//EN"
 "http://www.w3.org/Graphics/SVG/1.1/DTD/svg11.dtd">
<!-- Generated by graphviz version 13.1.0 (20250701.0955)
 -->
<!-- Title: htu21d_basic_init Pages: 1 -->
<svg width="271pt" height="644pt"
 viewBox="0.00 0.00 271.00 644.00" xmlns="http://www.w3.org/2000/svg" xmlns:xlink="http://www.w3.org/1999/xlink">
<g id="graph0" class="graph" transform="scale(1 1) rotate(0) translate(4 640)">
<title>htu21d_basic_init</title>
<!-- Node1 -->
<g id="Node000001" class="node">
<title>Node1</title>
<g id="a_Node000001"><a xlink:title="basic example init">
<polygon fill="#999999" stroke="#666666" points="91.75,-340 0,-340 0,-320 91.75,-320 91.75,-340"/>
<text xml:space="preserve" text-anchor="middle" x="45.88" y="-326.5" font-family="Helvetica,sans-Serif" font-size="10.00">htu21d_basic_init</text>
</a>
</g>
</g>
<!-- Node2 -->
<g id="Node000002" class="node">
<title>Node2</title>
<g id="a_Node000002"><a xlink:href="group__htu21d__base__driver.html#gaf7ebe0f270b1297b038ecf07e8d67318" target="_top" xlink:title="close the chip">
<polygon fill="white" stroke="#666666" points="232.25,-636 158.5,-636 158.5,-616 232.25,-616 232.25,-636"/>
<text xml:space="preserve" text-anchor="middle" x="195.38" y="-622.5" font-family="Helvetica,sans-Serif" font-size="10.00">htu21d_deinit</text>
</a>
</g>
</g>
<!-- Node1&#45;&gt;Node2 -->
<g id="edge1_Node000001_Node000002" class="edge">
<title>Node1&#45;&gt;Node2</title>
<g id="a_edge1_Node000001_Node000002"><a xlink:title=" ">
<path fill="none" stroke="#63b8ff" d="M46.59,-340.28C46.03,-380.58 49.57,-529.31 127.75,-607 133.2,-612.41 140.07,-616.31 147.32,-619.1"/>
<polygon fill="#63b8ff" stroke="#63b8ff" points="146.05,-622.37 156.64,-622.01 148.14,-615.69 146.05,-622.37"/>
</a>
</g>
</g>
<!-- Node3 -->
<g id="Node000003" class="node">
<title>Node3</title>
<g id="a_Node000003"><a xlink:href="group__htu21d__base__driver.html#ga6a1e3b056101d566b2296fa7da47c8b8" target="_top" xlink:title="initialize the chip">
<polygon fill="white" stroke="#666666" points="227,-598 163.75,-598 163.75,-578 227,-578 227,-598"/>
<text xml:space="preserve" text-anchor="middle" x="195.38" y="-584.5" font-family="Helvetica,sans-Serif" font-size="10.00">htu21d_init</text>
</a>
</g>
</g>
<!-- Node1&#45;&gt;Node3 -->
<g id="edge2_Node000001_Node000003" class="edge">
<title>Node1&#45;&gt;Node3</title>
<g id="a_edge2_Node000001_Node000003"><a xlink:title=" ">
<path fill="none" stroke="#63b8ff" d="M47.14,-340.39C48.67,-377.3 58.93,-503.43 127.75,-569 134.56,-575.49 143.43,-579.79 152.46,-582.62"/>
<polygon fill="#63b8ff" stroke="#63b8ff" points="151.41,-585.97 161.96,-585.04 153.13,-579.18 151.41,-585.97"/>
</a>
</g>
</g>
<!-- Node4 -->
<g id="Node000004" class="node">
<title>Node4</title>
<g id="a_Node000004"><a xlink:href="group__htu21d__interface__driver.html#gadff39cc15a0c9119f0d861739fafed6d" target="_top" xlink:title="interface print format data">
<polygon fill="white" stroke="#666666" points="255.12,-560 135.62,-560 135.62,-528 255.12,-528 255.12,-560"/>
<text xml:space="preserve" text-anchor="start" x="143.62" y="-546.5" font-family="Helvetica,sans-Serif" font-size="10.00">htu21d_interface_debug</text>
<text xml:space="preserve" text-anchor="middle" x="195.38" y="-534.5" font-family="Helvetica,sans-Serif" font-size="10.00">_print</text>
</a>
</g>
</g>
<!-- Node1&#45;&gt;Node4 -->
<g id="edge3_Node000001_Node000004" class="edge">
<title>Node1&#45;&gt;Node4</title>
<g id="a_edge3_Node000001_Node000004"><a xlink:title=" ">
<path fill="none" stroke="#63b8ff" d="M48.37,-340.2C53.48,-371.42 73.05,-466.72 127.75,-519 128.49,-519.71 129.26,-520.4 130.04,-521.07"/>
<polygon fill="#63b8ff" stroke="#63b8ff" points="127.7,-523.7 137.87,-526.67 131.77,-518 127.7,-523.7"/>
</a>
</g>
</g>
<!-- Node5 -->
<g id="Node000005" class="node">
<title>Node5</title>
<g id="a_Node000005"><a xlink:href="group__htu21d__interface__driver.html#gae778cd67fc47ddd7da4b0ef4016ea7e0" target="_top" xlink:title="interface delay ms">
<polygon fill="white" stroke="#666666" points="263,-510 127.75,-510 127.75,-490 263,-490 263,-510"/>
<text xml:space="preserve" text-anchor="middle" x="195.38" y="-496.5" font-family="Helvetica,sans-Serif" font-size="10.00">htu21d_interface_delay_ms</text>
</a>
</g>
</g>
<!-- Node1&#45;&gt;Node5 -->
<g id="edge4_Node000001_Node000005" class="edge">
<title>Node1&#45;&gt;Node5</title>
<g id="a_edge4_Node000001_Node000005"><a xlink:title=" ">
<path fill="none" stroke="#63b8ff" d="M49.36,-340.23C56.53,-367.48 79.82,-442.37 127.75,-481 129.23,-482.19 130.78,-483.31 132.39,-484.36"/>
<polygon fill="#63b8ff" stroke="#63b8ff" points="130.33,-487.23 140.8,-488.91 133.67,-481.07 130.33,-487.23"/>
</a>
</g>
</g>
<!-- Node6 -->
<g id="Node000006" class="node">
<title>Node6</title>
<g id="a_Node000006"><a xlink:href="group__htu21d__interface__driver.html#gab9514ef1e721d79a6e975d513ba380e5" target="_top" xlink:title="interface iic bus deinit">
<polygon fill="white" stroke="#666666" points="246.88,-472 143.88,-472 143.88,-440 246.88,-440 246.88,-472"/>
<text xml:space="preserve" text-anchor="start" x="151.88" y="-458.5" font-family="Helvetica,sans-Serif" font-size="10.00">htu21d_interface_iic</text>
<text xml:space="preserve" text-anchor="middle" x="195.38" y="-446.5" font-family="Helvetica,sans-Serif" font-size="10.00">_deinit</text>
</a>
</g>
</g>
<!-- Node1&#45;&gt;Node6 -->
<g id="edge5_Node000001_Node000006" class="edge">
<title>Node1&#45;&gt;Node6</title>
<g id="a_edge5_Node000001_Node000006"><a xlink:title=" ">
<path fill="none" stroke="#63b8ff" d="M52.6,-340.4C64.22,-360.61 92.47,-405.42 127.75,-431 129.55,-432.31 131.43,-433.55 133.36,-434.74"/>
<polygon fill="#63b8ff" stroke="#63b8ff" points="131.62,-437.78 142.08,-439.48 134.96,-431.63 131.62,-437.78"/>
</a>
</g>
</g>
<!-- Node7 -->
<g id="Node000007" class="node">
<title>Node7</title>
<g id="a_Node000007"><a xlink:href="group__htu21d__interface__driver.html#ga8689ac7313693ae3847857337d421036" target="_top" xlink:title="interface iic bus init">
<polygon fill="white" stroke="#666666" points="255.88,-422 134.88,-422 134.88,-402 255.88,-402 255.88,-422"/>
<text xml:space="preserve" text-anchor="middle" x="195.38" y="-408.5" font-family="Helvetica,sans-Serif" font-size="10.00">htu21d_interface_iic_init</text>
</a>
</g>
</g>
<!-- Node1&#45;&gt;Node7 -->
<g id="edge6_Node000001_Node000007" class="edge">
<title>Node1&#45;&gt;Node7</title>
<g id="a_edge6_Node000001_Node000007"><a xlink:title=" ">
<path fill="none" stroke="#63b8ff" d="M57.45,-340.46C72.07,-354.36 99.82,-378.82 127.75,-393 131.02,-394.66 134.46,-396.2 137.98,-397.61"/>
<polygon fill="#63b8ff" stroke="#63b8ff" points="136.67,-400.86 147.26,-400.99 139.06,-394.28 136.67,-400.86"/>
</a>
</g>
</g>
<!-- Node8 -->
<g id="Node000008" class="node">
<title>Node8</title>
<g id="a_Node000008"><a xlink:href="group__htu21d__interface__driver.html#gacd386da32ead6ab15f9ffc3e9ccc60fa" target="_top" xlink:title="interface iic bus read">
<polygon fill="white" stroke="#666666" points="258.88,-384 131.88,-384 131.88,-364 258.88,-364 258.88,-384"/>
<text xml:space="preserve" text-anchor="middle" x="195.38" y="-370.5" font-family="Helvetica,sans-Serif" font-size="10.00">htu21d_interface_iic_read</text>
</a>
</g>
</g>
<!-- Node1&#45;&gt;Node8 -->
<g id="edge7_Node000001_Node000008" class="edge">
<title>Node1&#45;&gt;Node8</title>
<g id="a_edge7_Node000001_Node000008"><a xlink:title=" ">
<path fill="none" stroke="#63b8ff" d="M79.88,-340.38C94.52,-344.94 111.97,-350.31 127.75,-355 133.88,-356.82 140.34,-358.71 146.72,-360.55"/>
<polygon fill="#63b8ff" stroke="#63b8ff" points="145.3,-363.78 155.88,-363.17 147.23,-357.05 145.3,-363.78"/>
</a>
</g>
</g>
<!-- Node9 -->
<g id="Node000009" class="node">
<title>Node9</title>
<g id="a_Node000009"><a xlink:href="group__htu21d__interface__driver.html#gab113b67c6847a287832baeda3e1508b5" target="_top" xlink:title="interface iic bus read command">
<polygon fill="white" stroke="#666666" points="246.88,-346 143.88,-346 143.88,-314 246.88,-314 246.88,-346"/>
<text xml:space="preserve" text-anchor="start" x="151.88" y="-332.5" font-family="Helvetica,sans-Serif" font-size="10.00">htu21d_interface_iic</text>
<text xml:space="preserve" text-anchor="middle" x="195.38" y="-320.5" font-family="Helvetica,sans-Serif" font-size="10.00">_read_cmd</text>
</a>
</g>
</g>
<!-- Node1&#45;&gt;Node9 -->
<g id="edge8_Node000001_Node000009" class="edge">
<title>Node1&#45;&gt;Node9</title>
<g id="a_edge8_Node000001_Node000009"><a xlink:title=" ">
<path fill="none" stroke="#63b8ff" d="M91.93,-330C104.64,-330 118.69,-330 132.22,-330"/>
<polygon fill="#63b8ff" stroke="#63b8ff" points="131.89,-333.5 141.89,-330 131.89,-326.5 131.89,-333.5"/>
</a>
</g>
</g>
<!-- Node10 -->
<g id="Node000010" class="node">
<title>Node10</title>
<g id="a_Node000010"><a xlink:href="group__htu21d__interface__driver.html#gac80d4ff73c3f117812c3c6c46610501e" target="_top" xlink:title="interface iic bus read with scl clock">
<polygon fill="white" stroke="#666666" points="246.88,-296 143.88,-296 143.88,-264 246.88,-264 246.88,-296"/>
<text xml:space="preserve" text-anchor="start" x="151.88" y="-282.5" font-family="Helvetica,sans-Serif" font-size="10.00">htu21d_interface_iic</text>
<text xml:space="preserve" text-anchor="middle" x="195.38" y="-270.5" font-family="Helvetica,sans-Serif" font-size="10.00">_read_with_scl</text>
</a>
</g>
</g>
<!-- Node1&#45;&gt;Node10 -->
<g id="edge9_Node000001_Node000010" class="edge">
<title>Node1&#45;&gt;Node10</title>
<g id="a_edge9_Node000001_Node000010"><a xlink:title=" ">
<path fill="none" stroke="#63b8ff" d="M77.8,-319.52C94.4,-313.89 115.44,-306.76 135.07,-300.1"/>
<polygon fill="#63b8ff" stroke="#63b8ff" points="136,-303.48 144.35,-296.96 133.76,-296.85 136,-303.48"/>
</a>
</g>
</g>
<!-- Node11 -->
<g id="Node000011" class="node">
<title>Node11</title>
<g id="a_Node000011"><a xlink:href="group__htu21d__interface__driver.html#ga023e8f8950e8b44430396daa984e279e" target="_top" xlink:title="interface iic bus write">
<polygon fill="white" stroke="#666666" points="246.88,-246 143.88,-246 143.88,-214 246.88,-214 246.88,-246"/>
<text xml:space="preserve" text-anchor="start" x="151.88" y="-232.5" font-family="Helvetica,sans-Serif" font-size="10.00">htu21d_interface_iic</text>
<text xml:space="preserve" text-anchor="middle" x="195.38" y="-220.5" font-family="Helvetica,sans-Serif" font-size="10.00">_write</text>
</a>
</g>
</g>
<!-- Node1&#45;&gt;Node11 -->
<g id="edge10_Node000001_Node000011" class="edge">
<title>Node1&#45;&gt;Node11</title>
<g id="a_edge10_Node000001_Node000011"><a xlink:title=" ">
<path fill="none" stroke="#63b8ff" d="M55.58,-319.67C69.42,-303.83 97.94,-273.42 127.75,-255 129.76,-253.76 131.85,-252.56 133.98,-251.41"/>
<polygon fill="#63b8ff" stroke="#63b8ff" points="135.45,-254.58 142.88,-247.03 132.36,-248.3 135.45,-254.58"/>
</a>
</g>
</g>
<!-- Node12 -->
<g id="Node000012" class="node">
<title>Node12</title>
<g id="a_Node000012"><a xlink:href="group__htu21d__interface__driver.html#ga13650da904843c3f8bdbf7c3347980fb" target="_top" xlink:title="interface iic bus write command">
<polygon fill="white" stroke="#666666" points="246.88,-196 143.88,-196 143.88,-164 246.88,-164 246.88,-196"/>
<text xml:space="preserve" text-anchor="start" x="151.88" y="-182.5" font-family="Helvetica,sans-Serif" font-size="10.00">htu21d_interface_iic</text>
<text xml:space="preserve" text-anchor="middle" x="195.38" y="-170.5" font-family="Helvetica,sans-Serif" font-size="10.00">_write_cmd</text>
</a>
</g>
</g>
<!-- Node1&#45;&gt;Node12 -->
<g id="edge11_Node000001_Node000012" class="edge">
<title>Node1&#45;&gt;Node12</title>
<g id="a_edge11_Node000001_Node000012"><a xlink:title=" ">
<path fill="none" stroke="#63b8ff" d="M50.87,-319.68C60.5,-296.06 87.28,-237.58 127.75,-205 129.67,-203.46 131.69,-202 133.78,-200.64"/>
<polygon fill="#63b8ff" stroke="#63b8ff" points="135.12,-203.9 142.07,-195.91 131.65,-197.82 135.12,-203.9"/>
</a>
</g>
</g>
<!-- Node13 -->
<g id="Node000013" class="node">
<title>Node13</title>
<g id="a_Node000013"><a xlink:href="group__htu21d__base__driver.html#ga16d8a4198e0263f9f3bf85dbaeef40e2" target="_top" xlink:title="enable or disable otp reload">
<polygon fill="white" stroke="#666666" points="245.38,-146 145.38,-146 145.38,-114 245.38,-114 245.38,-146"/>
<text xml:space="preserve" text-anchor="start" x="153.38" y="-132.5" font-family="Helvetica,sans-Serif" font-size="10.00">htu21d_set_disable</text>
<text xml:space="preserve" text-anchor="middle" x="195.38" y="-120.5" font-family="Helvetica,sans-Serif" font-size="10.00">_otp_reload</text>
</a>
</g>
</g>
<!-- Node1&#45;&gt;Node13 -->
<g id="edge12_Node000001_Node000013" class="edge">
<title>Node1&#45;&gt;Node13</title>
<g id="a_edge12_Node000001_Node000013"><a xlink:title=" ">
<path fill="none" stroke="#63b8ff" d="M48.78,-319.71C54.82,-289.95 76.25,-202.83 127.75,-155 130.13,-152.79 132.72,-150.78 135.45,-148.93"/>
<polygon fill="#63b8ff" stroke="#63b8ff" points="136.97,-152.09 143.89,-144.07 133.48,-146.03 136.97,-152.09"/>
</a>
</g>
</g>
<!-- Node14 -->
<g id="Node000014" class="node">
<title>Node14</title>
<g id="a_Node000014"><a xlink:href="group__htu21d__base__driver.html#gaaf07a0891b064297318d8465537303d0" target="_top" xlink:title="enable or disable the heater">
<polygon fill="white" stroke="#666666" points="243.5,-96 147.25,-96 147.25,-76 243.5,-76 243.5,-96"/>
<text xml:space="preserve" text-anchor="middle" x="195.38" y="-82.5" font-family="Helvetica,sans-Serif" font-size="10.00">htu21d_set_heater</text>
</a>
</g>
</g>
<!-- Node1&#45;&gt;Node14 -->
<g id="edge13_Node000001_Node000014" class="edge">
<title>Node1&#45;&gt;Node14</title>
<g id="a_edge13_Node000001_Node000014"><a xlink:title=" ">
<path fill="none" stroke="#63b8ff" d="M47.38,-319.72C49.71,-284.32 62.25,-166.23 127.75,-105 130.47,-102.45 133.51,-100.25 136.76,-98.33"/>
<polygon fill="#63b8ff" stroke="#63b8ff" points="138.11,-101.57 145.6,-94.08 135.07,-95.26 138.11,-101.57"/>
</a>
</g>
</g>
<!-- Node15 -->
<g id="Node000015" class="node">
<title>Node15</title>
<g id="a_Node000015"><a xlink:href="group__htu21d__base__driver.html#ga5e026222758e7889d0df2a0c18f25a32" target="_top" xlink:title="set the chip mode">
<polygon fill="white" stroke="#666666" points="242,-58 148.75,-58 148.75,-38 242,-38 242,-58"/>
<text xml:space="preserve" text-anchor="middle" x="195.38" y="-44.5" font-family="Helvetica,sans-Serif" font-size="10.00">htu21d_set_mode</text>
</a>
</g>
</g>
<!-- Node1&#45;&gt;Node15 -->
<g id="edge14_Node000001_Node000015" class="edge">
<title>Node1&#45;&gt;Node15</title>
<g id="a_edge14_Node000001_Node000015"><a xlink:title=" ">
<path fill="none" stroke="#63b8ff" d="M46.77,-319.69C46.96,-280.63 53.02,-140.21 127.75,-67 130.81,-64 134.3,-61.47 138.06,-59.34"/>
<polygon fill="#63b8ff" stroke="#63b8ff" points="139.46,-62.54 147.09,-55.19 136.54,-56.18 139.46,-62.54"/>
</a>
</g>
</g>
<!-- Node16 -->
<g id="Node000016" class="node">
<title>Node16</title>
<g id="a_Node000016"><a xlink:href="group__htu21d__base__driver.html#gaa22549eabbb2985d2ca58b6e46334de2" target="_top" xlink:title="set the resolution">
<polygon fill="white" stroke="#666666" points="251,-20 139.75,-20 139.75,0 251,0 251,-20"/>
<text xml:space="preserve" text-anchor="middle" x="195.38" y="-6.5" font-family="Helvetica,sans-Serif" font-size="10.00">htu21d_set_resolution</text>
</a>
</g>
</g>
<!-- Node1&#45;&gt;Node16 -->
<g id="edge15_Node000001_Node000016" class="edge">
<title>Node1&#45;&gt;Node16</title>
<g id="a_edge15_Node000001_Node000016"><a xlink:title=" ">
<path fill="none" stroke="#63b8ff" d="M48.27,-319.74C54.93,-272.02 85.04,-72.37 127.75,-29 128.49,-28.25 129.25,-27.53 130.04,-26.84"/>
<polygon fill="#63b8ff" stroke="#63b8ff" points="131.84,-29.85 138.09,-21.29 127.87,-24.09 131.84,-29.85"/>
</a>
</g>
</g>
</g>
</svg>
